<svg xmlns="http://www.w3.org/2000/svg" viewBox="0 0 1600 700">
  <defs>
    <linearGradient id="g2" x1="0" y1="0" x2="1" y2="1">
      <stop offset="0%" stop-color="#10253a"/>
      <stop offset="100%" stop-color="#0ea5a0"/>
    </linearGradient>
  </defs>
  <rect width="1600" height="700" fill="url(#g2)"/>
  <circle cx="290" cy="540" r="220" fill="#6cf7d6" opacity="0.18"/>
  <circle cx="1300" cy="160" r="180" fill="#bff6ff" opacity="0.14"/>
  <path d="M0 510 C220 420 380 570 620 510 C880 440 1040 560 1280 500 C1410 470 1510 480 1600 500 L1600 700 L0 700 Z" fill="#ffffff" opacity="0.12"/>
  <path d="M0 560 C260 500 430 610 680 560 C920 510 1110 620 1370 560 C1490 530 1550 530 1600 540 L1600 700 L0 700 Z" fill="#ffffff" opacity="0.08"/>
</svg>
